<?xml version="1.0" encoding="utf-8"?>
<!-- Generator: Adobe Illustrator 17.0.0, SVG Export Plug-In . SVG Version: 6.00 Build 0)  -->
<!DOCTYPE svg PUBLIC "-//W3C//DTD SVG 1.1//EN" "http://www.w3.org/Graphics/SVG/1.1/DTD/svg11.dtd">
<svg version="1.1" id="Layer_1" xmlns="http://www.w3.org/2000/svg" xmlns:xlink="http://www.w3.org/1999/xlink" x="0px" y="0px"
	 width="300px" height="300px" viewBox="0 0 300 300" enable-background="new 0 0 300 300" xml:space="preserve">
<pattern  width="108.339" height="109.642" patternUnits="userSpaceOnUse" id="Jive" viewBox="47.562 -219.281 108.339 109.642" overflow="visible">
	<g>
		<polygon fill="none" points="47.562,-219.281 155.9,-219.281 155.9,-109.64 47.562,-109.64 		"/>
		<g>
			<path fill="#00427E" d="M135.035-74.945c0.021-0.119,0.125-0.205,0.246-0.207c12.906-0.135,24.754-3.268,33.972-11.515
				c-8.03,5.558-22.942,7.511-31.527,3.618c-0.11-0.05-0.169-0.17-0.142-0.288c0.026-0.118,0.133-0.2,0.254-0.196
				c10.68,0.289,19.279-3.007,25.984-8.965c-6.869-0.422-12.574-4.74-12.557-9.845c0-0.119,0.084-0.222,0.201-0.247
				c0.116-0.025,0.234,0.035,0.283,0.144c1.121,2.489,4.748,3.78,8.583,2.88c4.18-0.98,7-4.189,6.301-7.165
				c-0.472-2.015-2.436-3.403-4.952-3.787c-0.127-0.018-0.22-0.13-0.217-0.258c0.004-0.128,0.103-0.233,0.23-0.245
				c1.068-0.103,2.18-0.106,3.317,0.002c6.49,0.617,11.514,4.596,11.949,9.178c4.713-0.547,8.884-3.156,10.378-6.773
				c0.045-0.108,0.16-0.172,0.275-0.154c0.115,0.02,0.203,0.114,0.213,0.23c0.377,4.752-1.258,7.839-4.97,10.854
				c5.384-2.06,11.444-2.165,17.255,0.538c0.105,0.049,0.164,0.164,0.143,0.279c-0.023,0.115-0.123,0.199-0.24,0.203
				c-4.879,0.19-8.416,1.756-11.73,5.072c18.254-5.134,33.086,6.201,27.953,23.053c-0.035,0.115-0.146,0.19-0.268,0.178
				c-0.121-0.012-0.217-0.108-0.227-0.229c-0.918-9.714-7.703-16.115-17.861-17.076c5.387,2.061,11,6.977,11.557,15.534
				c0.008,0.122-0.072,0.233-0.191,0.263c-0.119,0.029-0.242-0.029-0.293-0.141c-2.799-6.154-8.297-9.266-14.16-9.812
				c6.334,2.58,10.396,8.602,11.57,16.42c0.02,0.123-0.055,0.242-0.174,0.279c-0.117,0.039-0.246-0.016-0.303-0.125
				c-3.865-7.583-12.156-12.794-22.446-8.812c-10.617,4.109-15.274,16.387-16.304,25.041c-0.015,0.121-0.115,0.215-0.238,0.223
				c-0.122,0.008-0.232-0.074-0.261-0.195c-3.72-15.688,3.583-31.949,16.637-38.84c-7.096,2.003-13.439,6.26-17.027,13.354
				c-8.294,1.019-14.004,3.862-16.857,9.239c-0.057,0.107-0.181,0.16-0.296,0.125c-0.115-0.033-0.191-0.145-0.182-0.266
				c0.183-2.109,0.941-6.33,4.074-8.271c-6.965,0.011-12.506-0.894-17.799-3.013C135.078-74.708,135.013-74.826,135.035-74.945z
				 M164.521-21.475c-0.099-0.066-0.229-0.055-0.315,0.025c-0.086,0.082-0.105,0.211-0.046,0.312
				c1.62,2.797,0.141,6.814-3.051,6.814c-5.721,0-8.471-10.77-7.596-20.594c2.163,5.756,4.033,8.055,7.348,10.795
				c0.094,0.078,0.229,0.078,0.322,0.002c0.094-0.078,0.121-0.209,0.064-0.316c-4.857-9.08-5.898-16.066-5.898-24.086
				c1.463,5.959,3.195,9.322,8.127,14.381c0.086,0.088,0.223,0.101,0.325,0.033c0.102-0.07,0.139-0.203,0.087-0.316
				c-5.298-11.59-4.894-24.447-0.947-34.264c0.039-0.098,0.015-0.209-0.062-0.281c-0.077-0.07-0.189-0.088-0.285-0.041
				c-5.205,2.551-8.264,4.227-12.752,10.389c1.357,7.398,0.229,11.049-3.172,17.195c3.938-9.918,1.842-23.894-8.188-29.592
				c-0.109-0.062-0.248-0.034-0.324,0.064c-0.078,0.1-0.071,0.241,0.016,0.332c3.781,3.955,6.531,10.635,4.156,17.928
				c1.529-10.389-7.596-19.115-17.779-19.115c-9.6,0-16.15,7.51-15.609,14.941c0.537,7.365,5.443,10.969,9.672,12.498
				c0.111,0.039,0.236-0.002,0.3-0.102c0.064-0.102,0.05-0.23-0.033-0.316c-5.61-5.691-6.378-16.492,3.583-19.76
				c-5.859,5.057-3.689,16.83,5.689,17.725c0.117,0.012,0.227-0.059,0.265-0.17c0.038-0.111-0.005-0.234-0.104-0.297
				c-2.009-1.277-3.679-3.771-3.679-6.574c0-4.674,3.422-6.51,5.676-6.51c3.422,0,6.26,3.256,6.26,8.18
				c0,5.844-5.26,10.684-12.02,11.436c-6.626,0.734-12.782-2.154-15.75-6.459c-0.069-0.102-0.201-0.139-0.313-0.088
				s-0.171,0.176-0.141,0.295c3.019,11.703,16.796,16.877,26.888,9.506c-6.613,7.502-17.006,7.605-25.722-0.086
				c-0.091-0.08-0.226-0.084-0.322-0.01c-0.097,0.072-0.127,0.205-0.073,0.312c2.667,5.408,9.253,11.82,18.605,10.885
				c8.557-0.855,13.521-9.014,14.523-15.691c0.557,8.521-1.394,14.537-8.754,20.146c-0.097,0.074-0.127,0.207-0.072,0.316
				c0.055,0.108,0.18,0.162,0.297,0.129c6.785-1.961,12.23-5.426,15.049-12.545c0,6.162-2.139,12.373-7.525,16.512
				c-0.098,0.074-0.127,0.205-0.072,0.315s0.179,0.164,0.296,0.131c3.453-0.984,6.171-2.488,8.138-5.186
				c1.311,11.1,6.521,17.691,12.525,17.691c4.125,0,7.205-3.033,7.205-7.871C169.332-15.285,167.844-19.258,164.521-21.475z
				 M263.748-113.094c-3.162-3.904-9.539-5.393-16.432-3.988c0.51-4.301-0.334-8.791-1.611-11.484
				c-0.053-0.109-0.174-0.167-0.291-0.139c-0.117,0.029-0.197,0.137-0.193,0.258c0.375,8.767-4.623,15.844-13.449,18.91
				c6.906-4.756,8.926-14.193,5.639-19.066c-0.068-0.099-0.195-0.138-0.307-0.092c-0.111,0.045-0.176,0.162-0.154,0.279
				c0.373,2.061-0.605,4.685-2.713,6.727c-2.906,2.814-6.85,3.453-8.811,1.43c-1.961-2.025-1.197-5.947,1.707-8.762
				c1.061-1.027,2.26-1.762,3.449-2.185c0.113-0.04,0.182-0.153,0.166-0.271c-0.014-0.119-0.109-0.211-0.229-0.221
				c-6.389-0.555-10.77,3.252-13.516,7.878c-2.795,4.705-7.57,8.41-13.211,7.67c-0.119-0.016-0.232,0.055-0.273,0.168
				c-0.039,0.113,0.006,0.24,0.109,0.302c2.797,1.685,5.871,2.384,9.863,1.052c-5.795,4.909-14.047,7.742-21.84,5.228
				c-0.109-0.036-0.229,0.007-0.291,0.104c-0.062,0.097-0.051,0.223,0.025,0.308c5.908,6.564,17.689,6.695,25.109,1.373
				c-3.037,4.316-7.068,7.484-14.293,8.478c-0.115,0.016-0.205,0.107-0.219,0.223c-0.012,0.116,0.055,0.226,0.164,0.266
				c8.291,3.078,16.6-0.045,23.445-8.215c-2.992,6.377-7.906,11.484-14.768,14.012c-0.115,0.042-0.184,0.16-0.162,0.279
				c0.02,0.121,0.123,0.21,0.244,0.213c3.943,0.081,7.486-0.858,12.266-3.57c-3.508,5.689-2.74,15.639,2.369,22.258
				c0.07,0.092,0.195,0.124,0.303,0.078c0.105-0.047,0.168-0.159,0.148-0.273c-1.18-7.201,1.299-15.33,5.609-19.643
				c-2.152,7.632-0.006,14.576,5.896,19.645c0.07,0.061,0.17,0.077,0.256,0.044c0.088-0.033,0.148-0.112,0.162-0.204
				c1.234-9.418,11.77-18.975,20.602-19.775c0.125-0.011,0.223-0.111,0.23-0.235c0.008-0.124-0.074-0.237-0.197-0.265
				c-4.279-0.969-8.691-0.49-12.389,1.031c2.66-2.934,5.939-5.111,9.555-6.246c0.117-0.036,0.189-0.15,0.176-0.271
				c-0.014-0.121-0.113-0.215-0.234-0.224c-4.51-0.312-8.924,1.006-12.73,3.538c4.361-6.621,10.98-11.545,19.428-13.506
				c0.121-0.028,0.203-0.139,0.197-0.263c-0.008-0.124-0.103-0.224-0.227-0.237c-11.918-1.302-21.746,3.318-28.221,11.918
				c1.648-4.9,6.365-9.756,12.945-12.619c5.846-2.545,11.85-2.946,16.422-1.51c0.105,0.033,0.223-0.007,0.285-0.1
				C263.822-112.883,263.818-113.006,263.748-113.094z M210.844-37.521c4.807-10.486,4.465-18.686,0.594-29.055
				c-0.045-0.117-0.166-0.184-0.289-0.16c-0.123,0.025-0.209,0.137-0.203,0.262c0.621,12.621-2.826,21.654-10.299,27.807
				c8.25-9.852,4.354-29.56-8.822-29.56c-9.585,0-17.516,7.976-19.455,17.524c-0.024,0.121,0.042,0.244,0.158,0.287
				c0.115,0.045,0.246,0,0.309-0.105c2.843-4.762,7.409-7.852,12.458-7.852c8.134,0,10.54,6.467,10.54,10.998
				c0,6.188-4.926,11.344-8.707,11.344c-3.437,0-5.04-2.824-5.04-4.928c0-3.898,2.998-7.166,6.376-8.164
				c0.119-0.035,0.197-0.154,0.18-0.279c-0.02-0.125-0.125-0.217-0.25-0.219c-4.106-0.025-7.577,1.856-9.63,5.568
				c-0.27-2.875-0.273-4.686,0.641-7.723c0.035-0.117-0.018-0.242-0.126-0.299c-0.109-0.057-0.242-0.027-0.316,0.068
				c-7.356,9.393-3.836,25.625,1.98,32.358c-5.532-3.983-10.417-12.633-10.34-24.393c0.001-0.123-0.085-0.227-0.205-0.25
				c-0.12-0.025-0.239,0.041-0.284,0.154c-4.108,10.252-1.929,29.248,9.281,39.852c-2.884,0.396-5.867,0.346-9.125-0.693
				c-0.115-0.035-0.24,0.014-0.299,0.119c-0.059,0.107-0.035,0.24,0.059,0.318C174.119-1.086,179.842,0,185.294,0
				c-4.697-5.5-3.137-16.555,4.354-16.555c5.348,0,7.775,8.299,3.646,12.781c-0.078,0.086-0.088,0.215-0.025,0.311
				c0.064,0.098,0.186,0.141,0.297,0.102c4.779-1.654,9.945-5.789,9.945-11.016c0-5.043-4.812-9.394-11.801-9.051
				c8.818-2.506,18.051,0.267,22.881,6.252c0.074,0.094,0.205,0.121,0.311,0.068c0.107-0.055,0.162-0.176,0.133-0.291
				c-2.791-10.717-11.967-15.199-23.44-13.707c9.281-3.756,23.25-0.48,29.424,7.311c0.072,0.092,0.199,0.121,0.307,0.072
				c0.105-0.051,0.164-0.168,0.141-0.281C220.096-30.619,216.604-35.566,210.844-37.521z"/>
			<path opacity="0.4" fill="#9DDCF9" d="M237.227-56.809c-0.021,0.119-0.125,0.207-0.246,0.207
				c-12.906,0.137-24.754,3.268-33.971,11.516c8.029-5.559,22.941-7.51,31.527-3.619c0.109,0.051,0.168,0.172,0.141,0.289
				c-0.025,0.117-0.133,0.199-0.254,0.197c-10.68-0.291-19.279,3.006-25.984,8.963c6.869,0.424,12.574,4.74,12.557,9.846
				c0,0.119-0.084,0.223-0.201,0.248c-0.115,0.023-0.234-0.035-0.283-0.145c-1.121-2.488-4.748-3.781-8.582-2.881
				c-4.18,0.982-7,4.19-6.301,7.166c0.471,2.014,2.436,3.402,4.951,3.787c0.127,0.02,0.221,0.129,0.217,0.258
				c-0.004,0.127-0.102,0.233-0.23,0.246c-1.068,0.102-2.18,0.105-3.316-0.004c-6.49-0.617-11.514-4.594-11.949-9.178
				c-4.713,0.547-8.885,3.158-10.378,6.773c-0.045,0.109-0.158,0.172-0.275,0.154c-0.115-0.018-0.203-0.113-0.213-0.23
				c-0.377-4.75,1.258-7.838,4.97-10.854c-5.384,2.059-11.445,2.164-17.256-0.537c-0.105-0.051-0.164-0.166-0.143-0.281
				c0.023-0.115,0.123-0.199,0.24-0.203c4.879-0.189,8.417-1.756,11.733-5.072c-18.257,5.135-33.089-6.201-27.956-23.051
				c0.035-0.117,0.146-0.191,0.268-0.18c0.121,0.012,0.217,0.107,0.227,0.229c0.918,9.715,7.703,16.117,17.861,17.076
				c-5.387-2.059-11-6.975-11.557-15.533c-0.008-0.123,0.072-0.232,0.191-0.264c0.119-0.029,0.242,0.031,0.293,0.143
				c2.799,6.154,8.297,9.264,14.16,9.812c-6.334-2.582-10.396-8.604-11.57-16.422c-0.02-0.123,0.055-0.24,0.174-0.279
				c0.117-0.037,0.246,0.016,0.303,0.127c3.865,7.582,12.156,12.793,22.447,8.81c10.617-4.109,15.273-16.385,16.303-25.039
				c0.016-0.123,0.115-0.217,0.238-0.225c0.123-0.006,0.232,0.076,0.262,0.195c3.719,15.689-3.584,31.949-16.637,38.84
				c7.096-2.002,13.439-6.26,17.027-13.353c8.293-1.018,14.004-3.863,16.857-9.24c0.057-0.105,0.18-0.158,0.295-0.125
				c0.115,0.035,0.191,0.146,0.182,0.266c-0.182,2.109-0.941,6.33-4.074,8.271c6.965-0.012,12.506,0.893,17.799,3.014
				C237.184-57.045,237.25-56.928,237.227-56.809z M207.74-110.277c0.1,0.064,0.229,0.055,0.316-0.027
				c0.086-0.08,0.104-0.209,0.045-0.312c-1.619-2.797-0.141-6.812,3.051-6.812c5.721,0,8.471,10.77,7.596,20.592
				c-2.162-5.754-4.033-8.055-7.348-10.795c-0.094-0.076-0.229-0.078-0.322,0c-0.094,0.076-0.121,0.209-0.062,0.316
				c4.855,9.078,5.896,16.064,5.896,24.084c-1.463-5.957-3.195-9.32-8.127-14.381c-0.086-0.088-0.223-0.102-0.324-0.031
				c-0.102,0.07-0.139,0.203-0.088,0.314c5.299,11.592,4.895,24.447,0.947,34.264c-0.039,0.098-0.014,0.209,0.062,0.281
				c0.078,0.072,0.189,0.088,0.285,0.043c5.205-2.551,8.264-4.227,12.752-10.391c-1.357-7.399-0.229-11.047,3.172-17.193
				c-3.938,9.916-1.842,23.893,8.188,29.59c0.109,0.062,0.248,0.035,0.324-0.064c0.078-0.1,0.072-0.24-0.016-0.332
				c-3.781-3.955-6.531-10.635-4.156-17.926c-1.529,10.389,7.596,19.113,17.779,19.113c9.6,0,16.15-7.508,15.609-14.94
				c-0.537-7.365-5.443-10.971-9.672-12.498c-0.111-0.041-0.236,0.002-0.299,0.101c-0.064,0.1-0.051,0.231,0.033,0.315
				c5.609,5.693,6.377,16.492-3.584,19.76c5.859-5.057,3.689-16.828-5.689-17.725c-0.117-0.01-0.227,0.061-0.264,0.172
				c-0.039,0.109,0.004,0.233,0.104,0.295c2.008,1.279,3.678,3.771,3.678,6.574c0,4.674-3.422,6.512-5.676,6.512
				c-3.422,0-6.26-3.256-6.26-8.182c0-5.842,5.26-10.684,12.02-11.434c6.627-0.736,12.783,2.154,15.75,6.459
				c0.07,0.102,0.201,0.137,0.314,0.086c0.111-0.051,0.17-0.174,0.141-0.293c-3.02-11.703-16.797-16.877-26.889-9.508
				c6.613-7.5,17.006-7.605,25.723,0.086c0.09,0.08,0.225,0.086,0.322,0.012c0.096-0.074,0.127-0.205,0.072-0.314
				c-2.666-5.406-9.252-11.818-18.605-10.885c-8.557,0.856-13.521,9.016-14.523,15.691c-0.557-8.521,1.395-14.535,8.754-20.144
				c0.098-0.074,0.127-0.207,0.072-0.316c-0.055-0.109-0.18-0.164-0.297-0.129c-6.785,1.959-12.23,5.424-15.049,12.543
				c0-6.16,2.139-12.371,7.525-16.51c0.098-0.074,0.127-0.207,0.072-0.316c-0.055-0.107-0.178-0.162-0.295-0.129
				c-3.453,0.982-6.172,2.488-8.139,5.184c-1.311-11.1-6.521-17.689-12.525-17.689c-4.125,0-7.205,3.033-7.205,7.869
				C202.93-116.469,204.418-112.496,207.74-110.277z M108.514-18.66c3.162,3.904,9.539,5.393,16.432,3.988
				c-0.51,4.303,0.334,8.791,1.611,11.486c0.053,0.107,0.174,0.166,0.291,0.137c0.117-0.029,0.197-0.137,0.193-0.258
				c-0.375-8.766,4.623-15.842,13.449-18.908c-6.906,4.756-8.926,14.193-5.639,19.064c0.068,0.1,0.195,0.139,0.307,0.094
				c0.111-0.045,0.176-0.162,0.154-0.281c-0.373-2.061,0.605-4.684,2.713-6.725c2.906-2.814,6.85-3.453,8.811-1.43
				c1.961,2.025,1.197,5.947-1.707,8.76c-1.061,1.027-2.26,1.764-3.449,2.186c-0.113,0.041-0.182,0.154-0.166,0.271
				c0.014,0.119,0.109,0.211,0.229,0.221c6.389,0.555,10.77-3.252,13.516-7.877c2.795-4.705,7.57-8.412,13.211-7.672
				c0.119,0.016,0.232-0.055,0.273-0.168c0.039-0.113-0.006-0.238-0.109-0.301c-2.797-1.684-5.871-2.383-9.863-1.053
				c5.795-4.908,14.047-7.74,21.841-5.227c0.109,0.035,0.229-0.008,0.291-0.103c0.062-0.096,0.053-0.223-0.025-0.309
				c-5.909-6.564-17.691-6.695-25.11-1.371c3.037-4.316,7.068-7.486,14.293-8.479c0.115-0.016,0.205-0.109,0.219-0.225
				c0.012-0.115-0.055-0.225-0.164-0.266c-8.291-3.076-16.6,0.045-23.445,8.217c2.992-6.379,7.906-11.486,14.768-14.014
				c0.115-0.041,0.184-0.158,0.162-0.279c-0.02-0.121-0.123-0.209-0.244-0.211c-3.943-0.082-7.486,0.857-12.266,3.57
				c3.508-5.691,2.74-15.639-2.369-22.26c-0.07-0.092-0.195-0.123-0.303-0.078c-0.105,0.047-0.168,0.16-0.148,0.275
				c1.18,7.199-1.299,15.328-5.609,19.641c2.152-7.631,0.006-14.576-5.896-19.643c-0.07-0.061-0.17-0.078-0.256-0.045
				c-0.088,0.033-0.148,0.111-0.162,0.203c-1.234,9.418-11.77,18.975-20.602,19.775c-0.125,0.012-0.223,0.111-0.23,0.236
				c-0.008,0.125,0.074,0.236,0.197,0.264c4.279,0.969,8.691,0.49,12.389-1.029c-2.66,2.932-5.939,5.109-9.555,6.244
				c-0.117,0.037-0.189,0.15-0.176,0.272c0.014,0.121,0.113,0.217,0.234,0.225c4.51,0.31,8.924-1.006,12.73-3.539
				c-4.361,6.621-10.98,11.545-19.428,13.508c-0.121,0.027-0.203,0.139-0.197,0.262c0.008,0.123,0.103,0.223,0.227,0.236
				c11.918,1.303,21.746-3.318,28.221-11.918c-1.648,4.902-6.365,9.756-12.945,12.619c-5.846,2.545-11.85,2.947-16.422,1.51
				c-0.105-0.033-0.223,0.008-0.285,0.1C108.439-18.869,108.443-18.746,108.514-18.66z M161.418-94.232
				c-4.807,10.486-4.465,18.686-0.594,29.055c0.045,0.117,0.166,0.185,0.289,0.16c0.123-0.025,0.209-0.137,0.203-0.26
				c-0.621-12.623,2.826-21.654,10.299-27.809c-8.25,9.854-4.354,29.561,8.823,29.561c9.585,0,17.515-7.977,19.454-17.525
				c0.025-0.121-0.041-0.242-0.158-0.287c-0.115-0.045-0.246,0-0.309,0.107c-2.842,4.762-7.408,7.852-12.457,7.852
				c-8.135,0-10.541-6.467-10.541-11c0-6.186,4.927-11.342,8.708-11.342c3.437,0,5.04,2.822,5.04,4.926
				c0,3.898-2.998,7.166-6.374,8.164c-0.121,0.037-0.197,0.154-0.18,0.279c0.018,0.125,0.123,0.219,0.25,0.219
				c4.104,0.025,7.575-1.854,9.628-5.568c0.27,2.875,0.271,4.686-0.641,7.725c-0.035,0.117,0.018,0.242,0.125,0.299
				c0.109,0.055,0.242,0.027,0.316-0.07c7.357-9.393,3.836-25.623-1.979-32.357c5.531,3.982,10.416,12.635,10.34,24.395
				c-0.002,0.121,0.084,0.227,0.205,0.25c0.119,0.023,0.238-0.041,0.283-0.154c4.109-10.254,1.93-29.248-9.281-39.852
				c2.885-0.398,5.867-0.348,9.125,0.691c0.115,0.037,0.24-0.014,0.299-0.119c0.059-0.106,0.035-0.238-0.059-0.316
				c-4.092-3.455-9.814-4.541-15.266-4.541c4.697,5.5,3.137,16.553-4.353,16.553c-5.351,0-7.778-8.299-3.649-12.781
				c0.078-0.086,0.088-0.213,0.025-0.311c-0.065-0.098-0.186-0.139-0.297-0.102c-4.779,1.656-9.945,5.789-9.945,11.018
				c0,5.041,4.812,9.395,11.804,9.051c-8.821,2.504-18.054-0.268-22.884-6.254c-0.074-0.092-0.205-0.121-0.311-0.066
				c-0.107,0.053-0.162,0.174-0.133,0.291c2.791,10.715,11.967,15.199,23.44,13.705c-9.282,3.758-23.251,0.482-29.425-7.309
				c-0.072-0.092-0.199-0.123-0.307-0.072c-0.105,0.049-0.164,0.166-0.141,0.281C152.166-101.133,155.658-96.188,161.418-94.232z"/>
		</g>
		<g>
			<path fill="#00427E" d="M26.696-74.945c0.021-0.119,0.125-0.205,0.246-0.207c12.906-0.135,24.754-3.268,33.972-11.515
				c-8.03,5.558-22.942,7.511-31.527,3.618c-0.11-0.05-0.169-0.17-0.142-0.288c0.026-0.118,0.133-0.2,0.254-0.196
				c10.68,0.289,19.279-3.007,25.984-8.965c-6.869-0.422-12.574-4.74-12.557-9.845c0-0.119,0.084-0.222,0.201-0.247
				c0.116-0.025,0.234,0.035,0.283,0.144c1.121,2.489,4.748,3.78,8.583,2.88c4.18-0.98,7-4.189,6.301-7.165
				c-0.472-2.015-2.437-3.403-4.952-3.787c-0.127-0.018-0.22-0.13-0.217-0.258c0.004-0.128,0.103-0.233,0.23-0.245
				c1.068-0.103,2.18-0.106,3.317,0.002c6.49,0.617,11.514,4.596,11.949,9.178c4.713-0.547,8.885-3.156,10.379-6.773
				c0.045-0.108,0.16-0.172,0.275-0.154c0.115,0.02,0.203,0.114,0.213,0.23c0.377,4.752-1.258,7.839-4.971,10.854
				c5.385-2.06,11.445-2.165,17.256,0.538c0.105,0.049,0.164,0.164,0.143,0.279c-0.023,0.115-0.123,0.199-0.24,0.203
				c-4.879,0.19-8.416,1.756-11.73,5.072c18.254-5.134,33.086,6.201,27.953,23.053c-0.035,0.115-0.146,0.19-0.268,0.178
				c-0.121-0.012-0.217-0.108-0.227-0.229c-0.918-9.714-7.703-16.115-17.861-17.076c5.387,2.061,11,6.977,11.557,15.534
				c0.008,0.122-0.072,0.233-0.191,0.263c-0.119,0.029-0.242-0.029-0.293-0.141c-2.799-6.154-8.297-9.266-14.16-9.812
				c6.334,2.58,10.396,8.602,11.57,16.42c0.02,0.123-0.055,0.242-0.174,0.279c-0.117,0.039-0.246-0.016-0.303-0.125
				c-3.865-7.583-12.156-12.794-22.447-8.812C64.486-67.951,59.829-55.674,58.8-47.02c-0.015,0.121-0.115,0.215-0.238,0.223
				c-0.122,0.008-0.232-0.074-0.261-0.195c-3.72-15.688,3.583-31.949,16.637-38.84c-7.096,2.003-13.439,6.26-17.027,13.354
				c-8.294,1.019-14.004,3.862-16.857,9.239c-0.057,0.107-0.181,0.16-0.296,0.125c-0.115-0.033-0.191-0.145-0.182-0.266
				c0.183-2.109,0.941-6.33,4.074-8.271c-6.965,0.011-12.506-0.894-17.799-3.013C26.739-74.708,26.674-74.826,26.696-74.945z
				 M56.183-21.475c-0.099-0.066-0.228-0.055-0.315,0.025c-0.086,0.082-0.104,0.211-0.046,0.312c1.62,2.797,0.141,6.814-3.051,6.814
				c-5.721,0-8.471-10.77-7.596-20.594c2.163,5.756,4.033,8.055,7.348,10.795c0.094,0.078,0.229,0.078,0.322,0.002
				c0.094-0.078,0.121-0.209,0.063-0.316c-4.856-9.08-5.897-16.066-5.897-24.086c1.463,5.959,3.195,9.322,8.127,14.381
				c0.086,0.088,0.223,0.101,0.325,0.033c0.102-0.07,0.139-0.203,0.087-0.316c-5.298-11.59-4.894-24.447-0.947-34.264
				c0.039-0.098,0.015-0.209-0.062-0.281c-0.077-0.07-0.189-0.088-0.285-0.041c-5.205,2.551-8.264,4.227-12.752,10.389
				c1.358,7.398,0.229,11.049-3.172,17.195c3.938-9.918,1.842-23.894-8.188-29.592c-0.109-0.062-0.248-0.034-0.324,0.064
				c-0.078,0.1-0.071,0.241,0.016,0.332c3.781,3.955,6.531,10.635,4.156,17.928c1.529-10.389-7.596-19.115-17.779-19.115
				c-9.6,0-16.15,7.51-15.609,14.941c0.537,7.365,5.443,10.969,9.672,12.498c0.111,0.039,0.236-0.002,0.3-0.102
				c0.064-0.102,0.05-0.23-0.033-0.316c-5.61-5.691-6.378-16.492,3.583-19.76c-5.859,5.057-3.689,16.83,5.689,17.725
				c0.117,0.012,0.227-0.059,0.265-0.17c0.038-0.111-0.005-0.234-0.104-0.297c-2.009-1.277-3.679-3.771-3.679-6.574
				c0-4.674,3.422-6.51,5.676-6.51c3.422,0,6.26,3.256,6.26,8.18c0,5.844-5.26,10.684-12.019,11.436
				c-6.626,0.734-12.782-2.154-15.75-6.459c-0.069-0.102-0.201-0.139-0.313-0.088c-0.112,0.051-0.171,0.176-0.141,0.295
				c3.019,11.703,16.796,16.877,26.888,9.506C20.282-30.002,9.89-29.898,1.174-37.59c-0.091-0.08-0.226-0.084-0.322-0.01
				c-0.097,0.072-0.127,0.205-0.073,0.312c2.667,5.408,9.253,11.82,18.605,10.885c8.557-0.855,13.521-9.014,14.523-15.691
				c0.557,8.521-1.394,14.537-8.754,20.146c-0.097,0.074-0.127,0.207-0.072,0.316c0.055,0.108,0.18,0.162,0.297,0.129
				c6.785-1.961,12.23-5.426,15.049-12.545c0,6.162-2.139,12.373-7.525,16.512c-0.098,0.074-0.127,0.205-0.072,0.315
				c0.055,0.109,0.179,0.164,0.296,0.131c3.453-0.984,6.171-2.488,8.138-5.186c1.311,11.1,6.521,17.691,12.525,17.691
				c4.125,0,7.205-3.033,7.205-7.871C60.993-15.285,59.505-19.258,56.183-21.475z M155.41-113.094
				c-3.162-3.904-9.539-5.393-16.432-3.988c0.51-4.301-0.334-8.791-1.611-11.484c-0.053-0.109-0.174-0.167-0.291-0.139
				c-0.117,0.029-0.197,0.137-0.193,0.258c0.375,8.767-4.623,15.844-13.449,18.91c6.906-4.756,8.926-14.193,5.639-19.066
				c-0.068-0.099-0.195-0.138-0.307-0.092c-0.111,0.045-0.176,0.162-0.154,0.279c0.373,2.061-0.605,4.685-2.713,6.727
				c-2.906,2.814-6.85,3.453-8.811,1.43c-1.961-2.025-1.197-5.947,1.707-8.762c1.061-1.027,2.26-1.762,3.449-2.185
				c0.113-0.04,0.182-0.153,0.166-0.271c-0.014-0.119-0.109-0.211-0.229-0.221c-6.389-0.555-10.77,3.252-13.516,7.878
				c-2.795,4.705-7.57,8.41-13.211,7.67c-0.119-0.016-0.232,0.055-0.273,0.168c-0.039,0.113,0.006,0.24,0.109,0.302
				c2.797,1.685,5.871,2.384,9.863,1.052c-5.795,4.909-14.047,7.742-21.84,5.228c-0.109-0.036-0.229,0.007-0.291,0.104
				c-0.062,0.097-0.051,0.223,0.025,0.308c5.908,6.564,17.689,6.695,25.109,1.373c-3.037,4.316-7.068,7.484-14.293,8.478
				c-0.115,0.016-0.205,0.107-0.219,0.223c-0.012,0.116,0.055,0.226,0.164,0.266c8.291,3.078,16.6-0.045,23.445-8.215
				c-2.992,6.377-7.906,11.484-14.768,14.012c-0.115,0.042-0.184,0.16-0.162,0.279c0.02,0.121,0.123,0.21,0.244,0.213
				c3.943,0.081,7.486-0.858,12.266-3.57c-3.508,5.689-2.74,15.639,2.369,22.258c0.07,0.092,0.195,0.124,0.303,0.078
				c0.105-0.047,0.168-0.159,0.148-0.273c-1.18-7.201,1.299-15.33,5.609-19.643c-2.152,7.632-0.006,14.576,5.896,19.645
				c0.07,0.061,0.17,0.077,0.256,0.044c0.088-0.033,0.148-0.112,0.162-0.204c1.234-9.418,11.77-18.975,20.602-19.775
				c0.125-0.011,0.223-0.111,0.23-0.235s-0.074-0.237-0.197-0.265c-4.279-0.969-8.691-0.49-12.389,1.031
				c2.66-2.934,5.939-5.111,9.555-6.246c0.117-0.036,0.189-0.15,0.176-0.271c-0.014-0.121-0.113-0.215-0.234-0.224
				c-4.51-0.312-8.924,1.006-12.73,3.538c4.361-6.621,10.98-11.545,19.428-13.506c0.121-0.028,0.203-0.139,0.197-0.263
				c-0.008-0.124-0.104-0.224-0.227-0.237c-11.918-1.302-21.746,3.318-28.221,11.918c1.649-4.9,6.365-9.756,12.945-12.619
				c5.846-2.545,11.85-2.946,16.422-1.51c0.105,0.033,0.223-0.007,0.285-0.1C155.484-112.883,155.48-113.006,155.41-113.094z
				 M102.506-37.521c4.807-10.486,4.465-18.686,0.594-29.055c-0.045-0.117-0.166-0.184-0.289-0.16
				c-0.123,0.025-0.209,0.137-0.203,0.262c0.621,12.621-2.826,21.654-10.299,27.807c8.25-9.852,4.354-29.56-8.822-29.56
				c-9.586,0-17.517,7.976-19.456,17.524c-0.024,0.121,0.042,0.244,0.158,0.287c0.115,0.045,0.246,0,0.309-0.105
				c2.843-4.762,7.409-7.852,12.458-7.852c8.135,0,10.541,6.467,10.541,10.998c0,6.188-4.926,11.344-8.707,11.344
				c-3.438,0-5.041-2.824-5.041-4.928c0-3.898,2.998-7.166,6.377-8.164c0.119-0.035,0.197-0.154,0.18-0.279
				c-0.02-0.125-0.125-0.217-0.25-0.219c-4.107-0.025-7.578,1.856-9.631,5.568c-0.27-2.875-0.272-4.686,0.641-7.723
				c0.035-0.117-0.019-0.242-0.126-0.299c-0.109-0.057-0.242-0.027-0.316,0.068c-7.357,9.393-3.836,25.625,1.979,32.358
				c-5.532-3.983-10.417-12.633-10.34-24.393c0.001-0.123-0.085-0.227-0.205-0.25c-0.12-0.025-0.239,0.041-0.284,0.154
				c-4.108,10.252-1.929,29.248,9.281,39.852c-2.884,0.396-5.867,0.346-9.125-0.693c-0.115-0.035-0.24,0.014-0.299,0.119
				c-0.059,0.107-0.035,0.24,0.059,0.318C65.78-1.086,71.503,0,76.955,0c-4.697-5.5-3.137-16.555,4.355-16.555
				c5.348,0,7.775,8.299,3.646,12.781c-0.078,0.086-0.088,0.215-0.025,0.311c0.064,0.098,0.186,0.141,0.297,0.102
				c4.779-1.654,9.945-5.789,9.945-11.016c0-5.043-4.812-9.394-11.801-9.051c8.818-2.506,18.051,0.267,22.881,6.252
				c0.074,0.094,0.205,0.121,0.311,0.068c0.107-0.055,0.162-0.176,0.133-0.291c-2.791-10.717-11.967-15.199-23.439-13.707
				c9.281-3.756,23.25-0.48,29.424,7.311c0.072,0.092,0.199,0.121,0.307,0.072c0.105-0.051,0.164-0.168,0.141-0.281
				C111.758-30.619,108.266-35.566,102.506-37.521z"/>
			<path opacity="0.4" fill="#9DDCF9" d="M128.889-56.809c-0.021,0.119-0.125,0.207-0.246,0.207
				c-12.906,0.137-24.754,3.268-33.971,11.516c8.029-5.559,22.941-7.51,31.527-3.619c0.109,0.051,0.168,0.172,0.141,0.289
				c-0.025,0.117-0.133,0.199-0.254,0.197c-10.68-0.291-19.279,3.006-25.984,8.963c6.869,0.424,12.574,4.74,12.557,9.846
				c0,0.119-0.084,0.223-0.201,0.248c-0.115,0.023-0.234-0.035-0.283-0.145c-1.121-2.488-4.748-3.781-8.582-2.881
				c-4.18,0.982-7,4.19-6.301,7.166c0.471,2.014,2.436,3.402,4.951,3.787c0.127,0.02,0.221,0.129,0.217,0.258
				c-0.004,0.127-0.102,0.233-0.23,0.246c-1.068,0.102-2.18,0.105-3.316-0.004c-6.49-0.617-11.514-4.594-11.949-9.178
				c-4.713,0.547-8.885,3.158-10.379,6.773c-0.045,0.109-0.158,0.172-0.275,0.154c-0.115-0.018-0.203-0.113-0.213-0.23
				c-0.377-4.75,1.258-7.838,4.971-10.854c-5.385,2.059-11.446,2.164-17.257-0.537c-0.105-0.051-0.164-0.166-0.143-0.281
				c0.023-0.115,0.123-0.199,0.24-0.203c4.879-0.189,8.417-1.756,11.733-5.072c-18.257,5.135-33.089-6.201-27.956-23.051
				c0.035-0.117,0.146-0.191,0.267-0.18c0.121,0.012,0.217,0.107,0.227,0.229c0.918,9.715,7.703,16.117,17.861,17.076
				c-5.387-2.059-11-6.975-11.557-15.533c-0.008-0.123,0.072-0.232,0.191-0.264c0.119-0.029,0.242,0.031,0.293,0.143
				c2.799,6.154,8.297,9.264,14.16,9.812c-6.334-2.582-10.396-8.604-11.57-16.422c-0.019-0.123,0.055-0.24,0.174-0.279
				c0.117-0.037,0.246,0.016,0.303,0.127c3.865,7.582,12.156,12.793,22.448,8.81C91.1-63.803,95.756-76.078,96.785-84.732
				c0.016-0.123,0.115-0.217,0.238-0.225c0.123-0.006,0.232,0.076,0.262,0.195c3.719,15.689-3.584,31.949-16.637,38.84
				c7.096-2.002,13.439-6.26,17.027-13.353c8.293-1.018,14.004-3.863,16.857-9.24c0.057-0.105,0.18-0.158,0.295-0.125
				c0.115,0.035,0.191,0.146,0.182,0.266c-0.182,2.109-0.941,6.33-4.074,8.271c6.965-0.012,12.506,0.893,17.799,3.014
				C128.846-57.045,128.912-56.928,128.889-56.809z M99.402-110.277c0.1,0.064,0.229,0.055,0.317-0.027
				c0.086-0.08,0.104-0.209,0.045-0.312c-1.619-2.797-0.141-6.812,3.051-6.812c5.721,0,8.471,10.77,7.596,20.592
				c-2.162-5.754-4.033-8.055-7.348-10.795c-0.094-0.076-0.229-0.078-0.322,0c-0.094,0.076-0.121,0.209-0.062,0.316
				c4.855,9.078,5.896,16.064,5.896,24.084c-1.463-5.957-3.195-9.32-8.127-14.381c-0.086-0.088-0.223-0.102-0.324-0.031
				c-0.102,0.07-0.139,0.203-0.088,0.314c5.299,11.592,4.895,24.447,0.947,34.264c-0.039,0.098-0.014,0.209,0.062,0.281
				c0.078,0.072,0.189,0.088,0.285,0.043c5.205-2.551,8.264-4.227,12.752-10.391c-1.357-7.399-0.229-11.047,3.172-17.193
				c-3.938,9.916-1.842,23.893,8.188,29.59c0.109,0.062,0.248,0.035,0.324-0.064c0.078-0.1,0.072-0.24-0.016-0.332
				c-3.781-3.955-6.531-10.635-4.156-17.926c-1.529,10.389,7.596,19.113,17.779,19.113c9.6,0,16.15-7.508,15.609-14.94
				c-0.537-7.365-5.443-10.971-9.672-12.498c-0.111-0.041-0.236,0.002-0.299,0.101c-0.064,0.1-0.051,0.231,0.033,0.315
				c5.609,5.693,6.377,16.492-3.584,19.76c5.859-5.057,3.689-16.828-5.689-17.725c-0.117-0.01-0.227,0.061-0.264,0.172
				c-0.039,0.109,0.004,0.233,0.104,0.295c2.008,1.279,3.678,3.771,3.678,6.574c0,4.674-3.422,6.512-5.676,6.512
				c-3.422,0-6.26-3.256-6.26-8.182c0-5.842,5.26-10.684,12.02-11.434c6.627-0.736,12.783,2.154,15.75,6.459
				c0.07,0.102,0.201,0.137,0.314,0.086c0.111-0.051,0.17-0.174,0.141-0.293c-3.02-11.703-16.797-16.877-26.889-9.508
				c6.613-7.5,17.006-7.605,25.723,0.086c0.09,0.08,0.225,0.086,0.322,0.012c0.096-0.074,0.127-0.205,0.072-0.314
				c-2.666-5.406-9.252-11.818-18.605-10.885c-8.557,0.856-13.522,9.016-14.524,15.691c-0.557-8.521,1.395-14.535,8.754-20.144
				c0.098-0.074,0.127-0.207,0.072-0.316c-0.055-0.109-0.18-0.164-0.297-0.129c-6.785,1.959-12.23,5.424-15.049,12.543
				c0-6.16,2.139-12.371,7.525-16.51c0.098-0.074,0.127-0.207,0.072-0.316c-0.055-0.107-0.178-0.162-0.295-0.129
				c-3.453,0.982-6.172,2.488-8.139,5.184c-1.311-11.1-6.521-17.689-12.525-17.689c-4.125,0-7.205,3.033-7.205,7.869
				C94.592-116.469,96.08-112.496,99.402-110.277z M0.175-18.66c3.162,3.904,9.539,5.393,16.432,3.988
				c-0.51,4.303,0.334,8.791,1.611,11.486c0.053,0.107,0.174,0.166,0.291,0.137c0.117-0.029,0.197-0.137,0.193-0.258
				c-0.375-8.766,4.623-15.842,13.449-18.908c-6.906,4.756-8.926,14.193-5.639,19.064c0.068,0.1,0.195,0.139,0.307,0.094
				c0.111-0.045,0.176-0.162,0.154-0.281c-0.373-2.061,0.605-4.684,2.713-6.725c2.906-2.814,6.85-3.453,8.811-1.43
				c1.961,2.025,1.197,5.947-1.707,8.76c-1.061,1.027-2.26,1.764-3.449,2.186c-0.113,0.041-0.182,0.154-0.166,0.271
				c0.014,0.119,0.109,0.211,0.229,0.221c6.389,0.555,10.77-3.252,13.516-7.877c2.795-4.705,7.57-8.412,13.211-7.672
				c0.119,0.016,0.232-0.055,0.273-0.168c0.039-0.113-0.006-0.238-0.109-0.301c-2.797-1.684-5.871-2.383-9.863-1.053
				c5.795-4.908,14.047-7.74,21.841-5.227c0.109,0.035,0.229-0.008,0.291-0.103c0.062-0.096,0.053-0.223-0.025-0.309
				c-5.909-6.564-17.69-6.695-25.11-1.371c3.037-4.316,7.068-7.486,14.293-8.479c0.115-0.016,0.205-0.109,0.219-0.225
				c0.012-0.115-0.055-0.225-0.164-0.266c-8.291-3.076-16.6,0.045-23.445,8.217c2.992-6.379,7.906-11.486,14.768-14.014
				c0.115-0.041,0.184-0.158,0.162-0.279c-0.02-0.121-0.123-0.209-0.244-0.211c-3.943-0.082-7.486,0.857-12.266,3.57
				c3.508-5.691,2.74-15.639-2.369-22.26c-0.07-0.092-0.195-0.123-0.303-0.078c-0.105,0.047-0.168,0.16-0.148,0.275
				c1.18,7.199-1.299,15.328-5.609,19.641c2.152-7.631,0.006-14.576-5.896-19.643c-0.07-0.061-0.17-0.078-0.256-0.045
				c-0.088,0.033-0.148,0.111-0.162,0.203c-1.234,9.418-11.769,18.975-20.602,19.775c-0.125,0.012-0.223,0.111-0.23,0.236
				c-0.008,0.125,0.074,0.236,0.197,0.264c4.279,0.969,8.691,0.49,12.389-1.029c-2.66,2.932-5.94,5.109-9.555,6.244
				c-0.117,0.037-0.189,0.15-0.176,0.272c0.014,0.121,0.113,0.217,0.234,0.225c4.51,0.31,8.924-1.006,12.731-3.539
				c-4.361,6.621-10.981,11.545-19.428,13.508c-0.121,0.027-0.203,0.139-0.197,0.262c0.008,0.123,0.104,0.223,0.227,0.236
				c11.918,1.303,21.746-3.318,28.221-11.918c-1.648,4.902-6.365,9.756-12.945,12.619c-5.846,2.545-11.85,2.947-16.422,1.51
				c-0.105-0.033-0.223,0.008-0.285,0.1C0.101-18.869,0.104-18.746,0.175-18.66z M53.079-94.232
				c-4.807,10.486-4.465,18.686-0.594,29.055c0.045,0.117,0.166,0.185,0.289,0.16c0.123-0.025,0.209-0.137,0.203-0.26
				C52.356-77.9,55.804-86.932,63.276-93.086c-8.25,9.854-4.354,29.561,8.823,29.561c9.586,0,17.516-7.977,19.455-17.525
				c0.025-0.121-0.041-0.242-0.158-0.287c-0.115-0.045-0.246,0-0.309,0.107c-2.842,4.762-7.408,7.852-12.457,7.852
				c-8.136,0-10.542-6.467-10.542-11c0-6.186,4.927-11.342,8.708-11.342c3.438,0,5.041,2.822,5.041,4.926
				c0,3.898-2.998,7.166-6.375,8.164c-0.121,0.037-0.197,0.154-0.18,0.279c0.018,0.125,0.123,0.219,0.25,0.219
				c4.105,0.025,7.576-1.854,9.629-5.568c0.27,2.875,0.271,4.686-0.641,7.725c-0.035,0.117,0.018,0.242,0.125,0.299
				c0.109,0.055,0.242,0.027,0.316-0.07c7.357-9.393,3.836-25.623-1.979-32.357c5.531,3.982,10.416,12.635,10.34,24.395
				c-0.002,0.121,0.084,0.227,0.205,0.25c0.119,0.023,0.238-0.041,0.283-0.154c4.109-10.254,1.93-29.248-9.281-39.852
				c2.885-0.398,5.867-0.348,9.125,0.691c0.115,0.037,0.24-0.014,0.299-0.119c0.059-0.106,0.035-0.238-0.059-0.316
				c-4.092-3.455-9.814-4.541-15.266-4.541c4.697,5.5,3.137,16.553-4.354,16.553c-5.35,0-7.778-8.299-3.649-12.781
				c0.078-0.086,0.088-0.213,0.025-0.311c-0.064-0.098-0.186-0.139-0.297-0.102c-4.779,1.656-9.945,5.789-9.945,11.018
				c0,5.041,4.813,9.395,11.804,9.051c-8.821,2.504-18.054-0.268-22.884-6.254c-0.074-0.092-0.205-0.121-0.311-0.066
				c-0.107,0.053-0.162,0.174-0.133,0.291c2.791,10.715,11.967,15.199,23.44,13.705c-9.282,3.758-23.251,0.482-29.425-7.309
				c-0.072-0.092-0.199-0.123-0.307-0.072c-0.105,0.049-0.164,0.166-0.141,0.281C43.827-101.133,47.319-96.188,53.079-94.232z"/>
		</g>
		<g>
			<path fill="#00427E" d="M135.035-184.587c0.021-0.119,0.125-0.205,0.246-0.207c12.906-0.135,24.754-3.268,33.972-11.515
				c-8.03,5.558-22.942,7.511-31.527,3.618c-0.11-0.05-0.169-0.17-0.142-0.288c0.026-0.118,0.133-0.2,0.254-0.196
				c10.68,0.289,19.279-3.007,25.984-8.965c-6.869-0.422-12.574-4.74-12.557-9.845c0-0.119,0.084-0.222,0.201-0.247
				c0.116-0.025,0.234,0.035,0.283,0.144c1.121,2.489,4.748,3.78,8.583,2.88c4.18-0.98,7-4.189,6.301-7.165
				c-0.472-2.015-2.436-3.403-4.952-3.787c-0.127-0.018-0.22-0.13-0.217-0.258c0.004-0.128,0.103-0.233,0.23-0.245
				c1.068-0.102,2.18-0.106,3.317,0.002c6.49,0.617,11.514,4.596,11.949,9.178c4.713-0.547,8.884-3.156,10.378-6.773
				c0.045-0.108,0.16-0.172,0.275-0.154c0.115,0.019,0.203,0.114,0.213,0.23c0.377,4.752-1.258,7.839-4.97,10.855
				c5.384-2.06,11.444-2.165,17.255,0.538c0.105,0.049,0.164,0.164,0.143,0.279c-0.023,0.115-0.123,0.199-0.24,0.203
				c-4.879,0.191-8.416,1.756-11.73,5.072c18.254-5.134,33.086,6.201,27.953,23.053c-0.035,0.115-0.146,0.191-0.268,0.178
				c-0.121-0.012-0.217-0.107-0.227-0.229c-0.918-9.714-7.703-16.115-17.861-17.076c5.387,2.061,11,6.977,11.557,15.534
				c0.008,0.122-0.072,0.233-0.191,0.263c-0.119,0.029-0.242-0.029-0.293-0.141c-2.799-6.154-8.297-9.266-14.16-9.812
				c6.334,2.58,10.396,8.602,11.57,16.42c0.02,0.123-0.055,0.242-0.174,0.279c-0.117,0.039-0.246-0.016-0.303-0.125
				c-3.865-7.583-12.156-12.794-22.446-8.812c-10.617,4.109-15.274,16.387-16.304,25.041c-0.015,0.121-0.115,0.215-0.238,0.223
				c-0.122,0.008-0.232-0.074-0.261-0.195c-3.72-15.688,3.583-31.949,16.637-38.84c-7.096,2.003-13.439,6.26-17.027,13.355
				c-8.294,1.018-14.004,3.862-16.857,9.239c-0.057,0.107-0.181,0.16-0.296,0.125c-0.115-0.033-0.191-0.145-0.182-0.266
				c0.183-2.109,0.941-6.33,4.074-8.271c-6.965,0.011-12.506-0.894-17.799-3.013C135.078-184.35,135.013-184.468,135.035-184.587z
				 M164.521-131.116c-0.099-0.066-0.229-0.055-0.315,0.025c-0.086,0.082-0.105,0.211-0.046,0.312
				c1.62,2.797,0.141,6.814-3.051,6.814c-5.721,0-8.471-10.77-7.596-20.594c2.163,5.756,4.033,8.055,7.348,10.795
				c0.094,0.078,0.229,0.078,0.322,0.002c0.094-0.078,0.121-0.209,0.064-0.316c-4.857-9.08-5.898-16.066-5.898-24.086
				c1.463,5.959,3.195,9.322,8.127,14.381c0.086,0.088,0.223,0.102,0.325,0.033c0.102-0.07,0.139-0.203,0.087-0.316
				c-5.298-11.59-4.894-24.447-0.947-34.264c0.039-0.098,0.015-0.209-0.062-0.281c-0.077-0.07-0.189-0.088-0.285-0.041
				c-5.205,2.551-8.264,4.227-12.752,10.389c1.357,7.398,0.229,11.049-3.172,17.195c3.938-9.918,1.842-23.895-8.188-29.592
				c-0.109-0.061-0.248-0.034-0.324,0.064c-0.078,0.1-0.071,0.241,0.016,0.332c3.781,3.955,6.531,10.635,4.156,17.928
				c1.529-10.389-7.596-19.115-17.779-19.115c-9.6,0-16.15,7.51-15.609,14.941c0.537,7.365,5.443,10.969,9.672,12.498
				c0.111,0.039,0.236-0.002,0.3-0.102c0.064-0.102,0.05-0.23-0.033-0.316c-5.61-5.691-6.378-16.492,3.583-19.76
				c-5.859,5.057-3.689,16.83,5.689,17.725c0.117,0.012,0.227-0.059,0.265-0.17c0.038-0.111-0.005-0.234-0.104-0.297
				c-2.009-1.277-3.679-3.771-3.679-6.574c0-4.674,3.422-6.51,5.676-6.51c3.422,0,6.26,3.256,6.26,8.18
				c0,5.844-5.26,10.684-12.02,11.436c-6.626,0.734-12.782-2.154-15.75-6.459c-0.069-0.102-0.201-0.139-0.313-0.088
				c-0.112,0.051-0.171,0.176-0.141,0.295c3.019,11.703,16.796,16.877,26.888,9.506c-6.613,7.502-17.006,7.605-25.722-0.086
				c-0.091-0.08-0.226-0.084-0.322-0.01c-0.097,0.072-0.127,0.205-0.073,0.312c2.667,5.408,9.253,11.82,18.605,10.885
				c8.557-0.855,13.521-9.014,14.523-15.691c0.557,8.521-1.394,14.537-8.754,20.146c-0.097,0.074-0.127,0.207-0.072,0.316
				c0.055,0.107,0.18,0.162,0.297,0.129c6.785-1.961,12.23-5.426,15.049-12.545c0,6.162-2.139,12.373-7.525,16.512
				c-0.098,0.074-0.127,0.205-0.072,0.314s0.179,0.164,0.296,0.131c3.453-0.984,6.171-2.488,8.138-5.186
				c1.311,11.1,6.521,17.691,12.525,17.691c4.125,0,7.205-3.033,7.205-7.871C169.332-124.927,167.844-128.899,164.521-131.116z
				 M263.748-222.735c-3.162-3.904-9.539-5.393-16.432-3.988c0.51-4.301-0.334-8.791-1.611-11.484
				c-0.053-0.109-0.174-0.167-0.291-0.139c-0.117,0.029-0.197,0.137-0.193,0.258c0.375,8.767-4.623,15.844-13.449,18.91
				c6.906-4.756,8.926-14.193,5.639-19.066c-0.068-0.099-0.195-0.138-0.307-0.092c-0.111,0.045-0.176,0.162-0.154,0.279
				c0.373,2.06-0.605,4.685-2.713,6.726c-2.906,2.814-6.85,3.453-8.811,1.43c-1.961-2.025-1.197-5.947,1.707-8.762
				c1.061-1.027,2.26-1.762,3.449-2.185c0.113-0.04,0.182-0.153,0.166-0.271c-0.014-0.119-0.109-0.211-0.229-0.221
				c-6.389-0.555-10.77,3.252-13.516,7.878c-2.795,4.705-7.57,8.41-13.211,7.67c-0.119-0.016-0.232,0.055-0.273,0.168
				c-0.039,0.113,0.006,0.24,0.109,0.302c2.797,1.685,5.871,2.384,9.863,1.052c-5.795,4.909-14.047,7.742-21.84,5.227
				c-0.109-0.036-0.229,0.007-0.291,0.104c-0.062,0.097-0.051,0.223,0.025,0.308c5.908,6.564,17.689,6.695,25.109,1.373
				c-3.037,4.316-7.068,7.484-14.293,8.479c-0.115,0.016-0.205,0.107-0.219,0.223c-0.012,0.116,0.055,0.226,0.164,0.266
				c8.291,3.078,16.6-0.045,23.445-8.215c-2.992,6.377-7.906,11.484-14.768,14.012c-0.115,0.042-0.184,0.16-0.162,0.279
				c0.02,0.121,0.123,0.21,0.244,0.213c3.943,0.081,7.486-0.857,12.266-3.57c-3.508,5.689-2.74,15.639,2.369,22.258
				c0.07,0.092,0.195,0.124,0.303,0.078c0.105-0.047,0.168-0.159,0.148-0.273c-1.18-7.201,1.299-15.33,5.609-19.643
				c-2.152,7.632-0.006,14.576,5.896,19.645c0.07,0.061,0.17,0.077,0.256,0.044c0.088-0.033,0.148-0.112,0.162-0.204
				c1.234-9.418,11.77-18.975,20.602-19.775c0.125-0.011,0.223-0.111,0.23-0.235c0.008-0.124-0.074-0.237-0.197-0.265
				c-4.279-0.969-8.691-0.49-12.389,1.031c2.66-2.934,5.939-5.111,9.555-6.246c0.117-0.036,0.189-0.15,0.176-0.271
				c-0.014-0.121-0.113-0.215-0.234-0.224c-4.51-0.311-8.924,1.006-12.73,3.538c4.361-6.621,10.98-11.545,19.428-13.506
				c0.121-0.028,0.203-0.139,0.197-0.263c-0.008-0.124-0.103-0.224-0.227-0.237c-11.918-1.302-21.746,3.318-28.221,11.918
				c1.648-4.9,6.365-9.756,12.945-12.619c5.846-2.545,11.85-2.946,16.422-1.51c0.105,0.033,0.223-0.007,0.285-0.1
				C263.822-222.524,263.818-222.647,263.748-222.735z M210.844-147.163c4.807-10.486,4.465-18.686,0.594-29.055
				c-0.045-0.117-0.166-0.185-0.289-0.16c-0.123,0.025-0.209,0.137-0.203,0.262c0.621,12.621-2.826,21.654-10.299,27.807
				c8.25-9.852,4.354-29.559-8.822-29.559c-9.585,0-17.516,7.975-19.455,17.524c-0.024,0.121,0.042,0.244,0.158,0.287
				c0.115,0.045,0.246,0,0.309-0.105c2.843-4.762,7.409-7.852,12.458-7.852c8.134,0,10.54,6.467,10.54,10.998
				c0,6.188-4.926,11.344-8.707,11.344c-3.437,0-5.04-2.824-5.04-4.928c0-3.898,2.998-7.166,6.376-8.164
				c0.119-0.035,0.197-0.154,0.18-0.279c-0.02-0.125-0.125-0.217-0.25-0.219c-4.106-0.025-7.577,1.855-9.63,5.568
				c-0.27-2.875-0.273-4.686,0.641-7.723c0.035-0.117-0.018-0.242-0.126-0.299c-0.109-0.057-0.242-0.027-0.316,0.068
				c-7.356,9.393-3.836,25.625,1.98,32.357c-5.532-3.982-10.417-12.633-10.34-24.393c0.001-0.123-0.085-0.227-0.205-0.25
				c-0.12-0.025-0.239,0.041-0.284,0.154c-4.108,10.252-1.929,29.248,9.281,39.851c-2.884,0.396-5.867,0.346-9.125-0.693
				c-0.115-0.035-0.24,0.014-0.299,0.119c-0.059,0.107-0.035,0.24,0.059,0.318c4.092,3.455,9.814,4.541,15.267,4.541
				c-4.697-5.5-3.137-16.555,4.354-16.555c5.348,0,7.775,8.299,3.646,12.781c-0.078,0.086-0.088,0.215-0.025,0.311
				c0.064,0.098,0.186,0.141,0.297,0.102c4.779-1.654,9.945-5.789,9.945-11.016c0-5.043-4.812-9.395-11.801-9.051
				c8.818-2.506,18.051,0.267,22.881,6.252c0.074,0.094,0.205,0.121,0.311,0.068c0.107-0.055,0.162-0.176,0.133-0.291
				c-2.791-10.717-11.967-15.199-23.44-13.707c9.281-3.756,23.25-0.48,29.424,7.311c0.072,0.092,0.199,0.121,0.307,0.072
				c0.105-0.051,0.164-0.168,0.141-0.281C220.096-140.261,216.604-145.208,210.844-147.163z"/>
			<path opacity="0.4" fill="#9DDCF9" d="M237.227-166.45c-0.021,0.119-0.125,0.207-0.246,0.207
				c-12.906,0.137-24.754,3.268-33.971,11.516c8.029-5.559,22.941-7.51,31.527-3.619c0.109,0.051,0.168,0.172,0.141,0.289
				c-0.025,0.117-0.133,0.199-0.254,0.197c-10.68-0.291-19.279,3.006-25.984,8.963c6.869,0.424,12.574,4.74,12.557,9.846
				c0,0.119-0.084,0.223-0.201,0.248c-0.115,0.023-0.234-0.035-0.283-0.145c-1.121-2.488-4.748-3.781-8.582-2.881
				c-4.18,0.982-7,4.189-6.301,7.166c0.471,2.014,2.436,3.402,4.951,3.787c0.127,0.02,0.221,0.129,0.217,0.258
				c-0.004,0.127-0.102,0.232-0.23,0.246c-1.068,0.102-2.18,0.105-3.316-0.004c-6.49-0.617-11.514-4.594-11.949-9.178
				c-4.713,0.547-8.885,3.158-10.378,6.773c-0.045,0.109-0.158,0.172-0.275,0.154c-0.115-0.018-0.203-0.113-0.213-0.23
				c-0.377-4.75,1.258-7.838,4.97-10.854c-5.384,2.059-11.445,2.164-17.256-0.537c-0.105-0.051-0.164-0.166-0.143-0.281
				c0.023-0.115,0.123-0.199,0.24-0.203c4.879-0.189,8.417-1.756,11.733-5.072c-18.257,5.135-33.089-6.201-27.956-23.051
				c0.035-0.117,0.146-0.191,0.268-0.18c0.121,0.012,0.217,0.107,0.227,0.229c0.918,9.715,7.703,16.117,17.861,17.076
				c-5.387-2.059-11-6.975-11.557-15.533c-0.008-0.123,0.072-0.232,0.191-0.264c0.119-0.029,0.242,0.031,0.293,0.143
				c2.799,6.154,8.297,9.264,14.16,9.812c-6.334-2.582-10.396-8.604-11.57-16.422c-0.02-0.123,0.055-0.24,0.174-0.279
				c0.117-0.037,0.246,0.016,0.303,0.127c3.865,7.582,12.156,12.793,22.447,8.81c10.617-4.109,15.273-16.385,16.303-25.039
				c0.016-0.123,0.115-0.217,0.238-0.225c0.123-0.006,0.232,0.076,0.262,0.195c3.719,15.689-3.584,31.949-16.637,38.84
				c7.096-2.002,13.439-6.26,17.027-13.354c8.293-1.018,14.004-3.863,16.857-9.24c0.057-0.105,0.18-0.158,0.295-0.125
				c0.115,0.035,0.191,0.146,0.182,0.266c-0.182,2.109-0.941,6.33-4.074,8.271c6.965-0.012,12.506,0.893,17.799,3.014
				C237.184-166.686,237.25-166.569,237.227-166.45z M207.74-219.919c0.1,0.064,0.229,0.055,0.316-0.027
				c0.086-0.08,0.104-0.209,0.045-0.312c-1.619-2.797-0.141-6.812,3.051-6.812c5.721,0,8.471,10.77,7.596,20.592
				c-2.162-5.754-4.033-8.055-7.348-10.795c-0.094-0.076-0.229-0.078-0.322,0c-0.094,0.076-0.121,0.209-0.062,0.316
				c4.855,9.078,5.896,16.064,5.896,24.084c-1.463-5.957-3.195-9.32-8.127-14.381c-0.086-0.088-0.223-0.102-0.324-0.031
				c-0.102,0.07-0.139,0.203-0.088,0.314c5.299,11.592,4.895,24.447,0.947,34.264c-0.039,0.098-0.014,0.209,0.062,0.281
				c0.078,0.072,0.189,0.088,0.285,0.043c5.205-2.551,8.264-4.227,12.752-10.391c-1.357-7.398-0.229-11.047,3.172-17.193
				c-3.938,9.916-1.842,23.893,8.188,29.59c0.109,0.062,0.248,0.035,0.324-0.064c0.078-0.1,0.072-0.24-0.016-0.332
				c-3.781-3.955-6.531-10.635-4.156-17.926c-1.529,10.389,7.596,19.113,17.779,19.113c9.6,0,16.15-7.508,15.609-14.939
				c-0.537-7.365-5.443-10.971-9.672-12.498c-0.111-0.041-0.236,0.002-0.299,0.102c-0.064,0.1-0.051,0.23,0.033,0.314
				c5.609,5.693,6.377,16.492-3.584,19.76c5.859-5.057,3.689-16.828-5.689-17.725c-0.117-0.01-0.227,0.061-0.264,0.172
				c-0.039,0.109,0.004,0.232,0.104,0.295c2.008,1.279,3.678,3.771,3.678,6.574c0,4.674-3.422,6.512-5.676,6.512
				c-3.422,0-6.26-3.256-6.26-8.182c0-5.842,5.26-10.684,12.02-11.434c6.627-0.736,12.783,2.154,15.75,6.459
				c0.07,0.102,0.201,0.137,0.314,0.086c0.111-0.051,0.17-0.174,0.141-0.293c-3.02-11.703-16.797-16.877-26.889-9.508
				c6.613-7.5,17.006-7.605,25.723,0.086c0.09,0.08,0.225,0.086,0.322,0.012c0.096-0.074,0.127-0.205,0.072-0.314
				c-2.666-5.406-9.252-11.818-18.605-10.885c-8.557,0.855-13.521,9.016-14.523,15.691c-0.557-8.521,1.395-14.535,8.754-20.145
				c0.098-0.074,0.127-0.207,0.072-0.316s-0.18-0.164-0.297-0.129c-6.785,1.959-12.23,5.424-15.049,12.543
				c0-6.16,2.139-12.371,7.525-16.51c0.098-0.074,0.127-0.207,0.072-0.316c-0.055-0.107-0.178-0.162-0.295-0.129
				c-3.453,0.982-6.172,2.488-8.139,5.184c-1.311-11.1-6.521-17.689-12.525-17.689c-4.125,0-7.205,3.033-7.205,7.869
				C202.93-226.11,204.418-222.138,207.74-219.919z M108.514-128.302c3.162,3.904,9.539,5.393,16.432,3.988
				c-0.51,4.303,0.334,8.791,1.611,11.486c0.053,0.107,0.174,0.166,0.291,0.137c0.117-0.029,0.197-0.137,0.193-0.258
				c-0.375-8.766,4.623-15.842,13.449-18.908c-6.906,4.756-8.926,14.193-5.639,19.064c0.068,0.1,0.195,0.139,0.307,0.094
				c0.111-0.045,0.176-0.162,0.154-0.281c-0.373-2.061,0.605-4.684,2.713-6.725c2.906-2.815,6.85-3.453,8.811-1.43
				c1.961,2.025,1.197,5.947-1.707,8.76c-1.061,1.027-2.26,1.764-3.449,2.186c-0.113,0.041-0.182,0.154-0.166,0.271
				c0.014,0.119,0.109,0.211,0.229,0.221c6.389,0.555,10.77-3.252,13.516-7.877c2.795-4.705,7.57-8.412,13.211-7.672
				c0.119,0.016,0.232-0.055,0.273-0.168c0.039-0.113-0.006-0.238-0.109-0.301c-2.797-1.684-5.871-2.383-9.863-1.053
				c5.795-4.908,14.047-7.74,21.841-5.227c0.109,0.035,0.229-0.008,0.291-0.104c0.062-0.096,0.053-0.223-0.025-0.309
				c-5.909-6.564-17.691-6.695-25.11-1.371c3.037-4.316,7.068-7.486,14.293-8.479c0.115-0.016,0.205-0.109,0.219-0.225
				c0.012-0.115-0.055-0.225-0.164-0.266c-8.291-3.076-16.6,0.045-23.445,8.217c2.992-6.379,7.906-11.486,14.768-14.014
				c0.115-0.041,0.184-0.158,0.162-0.279c-0.02-0.121-0.123-0.209-0.244-0.211c-3.943-0.082-7.486,0.857-12.266,3.57
				c3.508-5.691,2.74-15.639-2.369-22.26c-0.07-0.092-0.195-0.123-0.303-0.078c-0.105,0.047-0.168,0.16-0.148,0.275
				c1.18,7.199-1.299,15.328-5.609,19.641c2.152-7.631,0.006-14.576-5.896-19.643c-0.07-0.061-0.17-0.078-0.256-0.045
				c-0.088,0.033-0.148,0.111-0.162,0.203c-1.234,9.418-11.77,18.975-20.602,19.775c-0.125,0.012-0.223,0.111-0.23,0.236
				c-0.008,0.125,0.074,0.236,0.197,0.264c4.279,0.969,8.691,0.49,12.389-1.029c-2.66,2.932-5.939,5.109-9.555,6.244
				c-0.117,0.037-0.189,0.15-0.176,0.271c0.014,0.121,0.113,0.217,0.234,0.225c4.51,0.311,8.924-1.006,12.73-3.539
				c-4.361,6.621-10.98,11.545-19.428,13.508c-0.121,0.027-0.203,0.139-0.197,0.262c0.008,0.123,0.103,0.223,0.227,0.236
				c11.918,1.303,21.746-3.318,28.221-11.918c-1.648,4.902-6.365,9.756-12.945,12.619c-5.846,2.545-11.85,2.947-16.422,1.51
				c-0.105-0.033-0.223,0.008-0.285,0.1C108.439-128.511,108.443-128.388,108.514-128.302z M161.418-203.874
				c-4.807,10.486-4.465,18.686-0.594,29.055c0.045,0.117,0.166,0.186,0.289,0.16c0.123-0.025,0.209-0.137,0.203-0.26
				c-0.621-12.623,2.826-21.654,10.299-27.809c-8.25,9.854-4.354,29.56,8.823,29.56c9.585,0,17.515-7.977,19.454-17.525
				c0.025-0.121-0.041-0.242-0.158-0.287c-0.115-0.045-0.246,0-0.309,0.107c-2.842,4.762-7.408,7.852-12.457,7.852
				c-8.135,0-10.541-6.467-10.541-11c0-6.186,4.927-11.342,8.708-11.342c3.437,0,5.04,2.822,5.04,4.926
				c0,3.898-2.998,7.166-6.374,8.164c-0.121,0.037-0.197,0.154-0.18,0.279c0.018,0.125,0.123,0.219,0.25,0.219
				c4.104,0.025,7.575-1.854,9.628-5.568c0.27,2.875,0.271,4.686-0.641,7.725c-0.035,0.117,0.018,0.242,0.125,0.299
				c0.109,0.055,0.242,0.027,0.316-0.07c7.357-9.393,3.836-25.623-1.979-32.357c5.531,3.983,10.416,12.635,10.34,24.395
				c-0.002,0.121,0.084,0.226,0.205,0.25c0.119,0.023,0.238-0.041,0.283-0.154c4.109-10.254,1.93-29.248-9.281-39.852
				c2.885-0.398,5.867-0.348,9.125,0.691c0.115,0.037,0.24-0.014,0.299-0.119c0.059-0.106,0.035-0.238-0.059-0.316
				c-4.092-3.455-9.814-4.541-15.266-4.541c4.697,5.5,3.137,16.553-4.353,16.553c-5.351,0-7.778-8.299-3.649-12.781
				c0.078-0.086,0.088-0.213,0.025-0.31c-0.065-0.098-0.186-0.139-0.297-0.102c-4.779,1.656-9.945,5.789-9.945,11.018
				c0,5.041,4.812,9.395,11.804,9.051c-8.821,2.504-18.054-0.268-22.884-6.254c-0.074-0.092-0.205-0.121-0.311-0.066
				c-0.107,0.053-0.162,0.174-0.133,0.291c2.791,10.715,11.967,15.199,23.44,13.705c-9.282,3.758-23.251,0.482-29.425-7.309
				c-0.072-0.092-0.199-0.123-0.307-0.072c-0.105,0.049-0.164,0.166-0.141,0.281C152.166-210.774,155.658-205.829,161.418-203.874z"
				/>
		</g>
		<g>
			<path fill="#00427E" d="M26.696-184.587c0.021-0.119,0.125-0.205,0.246-0.207c12.906-0.135,24.754-3.268,33.972-11.515
				c-8.03,5.558-22.942,7.511-31.527,3.618c-0.11-0.05-0.169-0.17-0.142-0.288c0.026-0.118,0.133-0.2,0.254-0.196
				c10.68,0.289,19.279-3.007,25.984-8.965c-6.869-0.422-12.574-4.74-12.557-9.845c0-0.119,0.084-0.222,0.201-0.247
				c0.116-0.025,0.234,0.035,0.283,0.144c1.121,2.489,4.748,3.78,8.583,2.88c4.18-0.98,7-4.189,6.301-7.165
				c-0.472-2.015-2.437-3.403-4.952-3.787c-0.127-0.018-0.22-0.13-0.217-0.258c0.004-0.128,0.103-0.233,0.23-0.245
				c1.068-0.102,2.18-0.106,3.317,0.002c6.49,0.617,11.514,4.596,11.949,9.178c4.713-0.547,8.885-3.156,10.379-6.773
				c0.045-0.108,0.16-0.172,0.275-0.154c0.115,0.019,0.203,0.114,0.213,0.23c0.377,4.752-1.258,7.839-4.971,10.855
				c5.385-2.06,11.445-2.165,17.256,0.538c0.105,0.049,0.164,0.164,0.143,0.279c-0.023,0.115-0.123,0.199-0.24,0.203
				c-4.879,0.191-8.416,1.756-11.73,5.072c18.254-5.134,33.086,6.201,27.953,23.053c-0.035,0.115-0.146,0.191-0.268,0.178
				c-0.121-0.012-0.217-0.107-0.227-0.229c-0.918-9.714-7.703-16.115-17.861-17.076c5.387,2.061,11,6.977,11.557,15.534
				c0.008,0.122-0.072,0.233-0.191,0.263c-0.119,0.029-0.242-0.029-0.293-0.141c-2.799-6.154-8.297-9.266-14.16-9.812
				c6.334,2.58,10.396,8.602,11.57,16.42c0.02,0.123-0.055,0.242-0.174,0.279c-0.117,0.039-0.246-0.016-0.303-0.125
				c-3.865-7.583-12.156-12.794-22.447-8.812c-10.617,4.109-15.274,16.387-16.304,25.041c-0.015,0.121-0.115,0.215-0.238,0.223
				c-0.122,0.008-0.232-0.074-0.261-0.195c-3.72-15.688,3.583-31.949,16.637-38.84c-7.096,2.003-13.439,6.26-17.027,13.355
				c-8.294,1.018-14.004,3.862-16.857,9.239c-0.057,0.107-0.181,0.16-0.296,0.125c-0.115-0.033-0.191-0.145-0.182-0.266
				c0.183-2.109,0.941-6.33,4.074-8.271c-6.965,0.011-12.506-0.894-17.799-3.013C26.739-184.35,26.674-184.468,26.696-184.587z
				 M56.183-131.116c-0.099-0.066-0.228-0.055-0.315,0.025c-0.086,0.082-0.104,0.211-0.046,0.312
				c1.62,2.797,0.141,6.814-3.051,6.814c-5.721,0-8.471-10.77-7.596-20.594c2.163,5.756,4.033,8.055,7.348,10.795
				c0.094,0.078,0.229,0.078,0.322,0.002c0.094-0.078,0.121-0.209,0.063-0.316c-4.856-9.08-5.897-16.066-5.897-24.086
				c1.463,5.959,3.195,9.322,8.127,14.381c0.086,0.088,0.223,0.102,0.325,0.033c0.102-0.07,0.139-0.203,0.087-0.316
				c-5.298-11.59-4.894-24.447-0.947-34.264c0.039-0.098,0.015-0.209-0.062-0.281c-0.077-0.07-0.189-0.088-0.285-0.041
				c-5.205,2.551-8.264,4.227-12.752,10.389c1.358,7.398,0.229,11.049-3.172,17.195c3.938-9.918,1.842-23.895-8.188-29.592
				c-0.109-0.061-0.248-0.034-0.324,0.064c-0.078,0.1-0.071,0.241,0.016,0.332c3.781,3.955,6.531,10.635,4.156,17.928
				c1.529-10.389-7.596-19.115-17.779-19.115c-9.6,0-16.15,7.51-15.609,14.941c0.537,7.365,5.443,10.969,9.672,12.498
				c0.111,0.039,0.236-0.002,0.3-0.102c0.064-0.102,0.05-0.23-0.033-0.316c-5.61-5.691-6.378-16.492,3.583-19.76
				c-5.859,5.057-3.689,16.83,5.689,17.725c0.117,0.012,0.227-0.059,0.265-0.17c0.038-0.111-0.005-0.234-0.104-0.297
				c-2.009-1.277-3.679-3.771-3.679-6.574c0-4.674,3.422-6.51,5.676-6.51c3.422,0,6.26,3.256,6.26,8.18
				c0,5.844-5.26,10.684-12.019,11.436c-6.626,0.734-12.782-2.154-15.75-6.459c-0.069-0.102-0.201-0.139-0.313-0.088
				c-0.112,0.051-0.171,0.176-0.141,0.295c3.019,11.703,16.796,16.877,26.888,9.506c-6.613,7.502-17.006,7.605-25.722-0.086
				c-0.091-0.08-0.226-0.084-0.322-0.01c-0.097,0.072-0.127,0.205-0.073,0.312c2.667,5.408,9.253,11.82,18.605,10.885
				c8.557-0.855,13.521-9.014,14.523-15.691c0.557,8.521-1.394,14.537-8.754,20.146c-0.097,0.074-0.127,0.207-0.072,0.316
				c0.055,0.107,0.18,0.162,0.297,0.129c6.785-1.961,12.23-5.426,15.049-12.545c0,6.162-2.139,12.373-7.525,16.512
				c-0.098,0.074-0.127,0.205-0.072,0.314c0.055,0.109,0.179,0.164,0.296,0.131c3.453-0.984,6.171-2.488,8.138-5.186
				c1.311,11.1,6.521,17.691,12.525,17.691c4.125,0,7.205-3.033,7.205-7.871C60.993-124.927,59.505-128.899,56.183-131.116z
				 M155.41-222.735c-3.162-3.904-9.539-5.393-16.432-3.988c0.51-4.301-0.334-8.791-1.611-11.484
				c-0.053-0.109-0.174-0.167-0.291-0.139c-0.117,0.029-0.197,0.137-0.193,0.258c0.375,8.767-4.623,15.844-13.449,18.91
				c6.906-4.756,8.926-14.193,5.639-19.066c-0.068-0.099-0.195-0.138-0.307-0.092c-0.111,0.045-0.176,0.162-0.154,0.279
				c0.373,2.06-0.605,4.685-2.713,6.726c-2.906,2.814-6.85,3.453-8.811,1.43c-1.961-2.025-1.197-5.947,1.707-8.762
				c1.061-1.027,2.26-1.762,3.449-2.185c0.113-0.04,0.182-0.153,0.166-0.271c-0.014-0.119-0.109-0.211-0.229-0.221
				c-6.389-0.555-10.77,3.252-13.516,7.878c-2.795,4.705-7.57,8.41-13.211,7.67c-0.119-0.016-0.232,0.055-0.273,0.168
				c-0.039,0.113,0.006,0.24,0.109,0.302c2.797,1.685,5.871,2.384,9.863,1.052c-5.795,4.909-14.047,7.742-21.84,5.227
				c-0.109-0.036-0.229,0.007-0.291,0.104c-0.062,0.097-0.051,0.223,0.025,0.308c5.908,6.564,17.689,6.695,25.109,1.373
				c-3.037,4.316-7.068,7.484-14.293,8.479c-0.115,0.016-0.205,0.107-0.219,0.223c-0.012,0.116,0.055,0.226,0.164,0.266
				c8.291,3.078,16.6-0.045,23.445-8.215c-2.992,6.377-7.906,11.484-14.768,14.012c-0.115,0.042-0.184,0.16-0.162,0.279
				c0.02,0.121,0.123,0.21,0.244,0.213c3.943,0.081,7.486-0.857,12.266-3.57c-3.508,5.689-2.74,15.639,2.369,22.258
				c0.07,0.092,0.195,0.124,0.303,0.078c0.105-0.047,0.168-0.159,0.148-0.273c-1.18-7.201,1.299-15.33,5.609-19.643
				c-2.152,7.632-0.006,14.576,5.896,19.645c0.07,0.061,0.17,0.077,0.256,0.044c0.088-0.033,0.148-0.112,0.162-0.204
				c1.234-9.418,11.77-18.975,20.602-19.775c0.125-0.011,0.223-0.111,0.23-0.235c0.008-0.124-0.074-0.237-0.197-0.265
				c-4.279-0.969-8.691-0.49-12.389,1.031c2.66-2.934,5.939-5.111,9.555-6.246c0.117-0.036,0.189-0.15,0.176-0.271
				c-0.014-0.121-0.113-0.215-0.234-0.224c-4.51-0.311-8.924,1.006-12.73,3.538c4.361-6.621,10.98-11.545,19.428-13.506
				c0.121-0.028,0.203-0.139,0.197-0.263c-0.008-0.124-0.104-0.224-0.227-0.237c-11.918-1.302-21.746,3.318-28.221,11.918
				c1.649-4.9,6.365-9.756,12.945-12.619c5.846-2.545,11.85-2.946,16.422-1.51c0.105,0.033,0.223-0.007,0.285-0.1
				C155.484-222.524,155.48-222.647,155.41-222.735z M102.506-147.163c4.807-10.486,4.465-18.686,0.594-29.055
				c-0.045-0.117-0.166-0.185-0.289-0.16c-0.123,0.025-0.209,0.137-0.203,0.262c0.621,12.621-2.826,21.654-10.299,27.807
				c8.25-9.852,4.354-29.559-8.822-29.559c-9.586,0-17.517,7.975-19.456,17.524c-0.024,0.121,0.042,0.244,0.158,0.287
				c0.115,0.045,0.246,0,0.309-0.105c2.843-4.762,7.409-7.852,12.458-7.852c8.135,0,10.541,6.467,10.541,10.998
				c0,6.188-4.926,11.344-8.707,11.344c-3.438,0-5.041-2.824-5.041-4.928c0-3.898,2.998-7.166,6.377-8.164
				c0.119-0.035,0.197-0.154,0.18-0.279c-0.02-0.125-0.125-0.217-0.25-0.219c-4.107-0.025-7.578,1.855-9.631,5.568
				c-0.27-2.875-0.272-4.686,0.641-7.723c0.035-0.117-0.019-0.242-0.126-0.299c-0.109-0.057-0.242-0.027-0.316,0.068
				c-7.357,9.393-3.836,25.625,1.979,32.357c-5.532-3.982-10.417-12.633-10.34-24.393c0.001-0.123-0.085-0.227-0.205-0.25
				c-0.12-0.025-0.239,0.041-0.284,0.154c-4.108,10.252-1.929,29.248,9.281,39.851c-2.884,0.396-5.867,0.346-9.125-0.693
				c-0.115-0.035-0.24,0.014-0.299,0.119c-0.059,0.107-0.035,0.24,0.059,0.318c4.092,3.455,9.814,4.541,15.267,4.541
				c-4.697-5.5-3.137-16.555,4.355-16.555c5.348,0,7.775,8.299,3.646,12.781c-0.078,0.086-0.088,0.215-0.025,0.311
				c0.064,0.098,0.186,0.141,0.297,0.102c4.779-1.654,9.945-5.789,9.945-11.016c0-5.043-4.812-9.395-11.801-9.051
				c8.818-2.506,18.051,0.267,22.881,6.252c0.074,0.094,0.205,0.121,0.311,0.068c0.107-0.055,0.162-0.176,0.133-0.291
				c-2.791-10.717-11.967-15.199-23.439-13.707c9.281-3.756,23.25-0.48,29.424,7.311c0.072,0.092,0.199,0.121,0.307,0.072
				c0.105-0.051,0.164-0.168,0.141-0.281C111.758-140.261,108.266-145.208,102.506-147.163z"/>
			<path opacity="0.4" fill="#9DDCF9" d="M128.889-166.45c-0.021,0.119-0.125,0.207-0.246,0.207
				c-12.906,0.137-24.754,3.268-33.971,11.516c8.029-5.559,22.941-7.51,31.527-3.619c0.109,0.051,0.168,0.172,0.141,0.289
				c-0.025,0.117-0.133,0.199-0.254,0.197c-10.68-0.291-19.279,3.006-25.984,8.963c6.869,0.424,12.574,4.74,12.557,9.846
				c0,0.119-0.084,0.223-0.201,0.248c-0.115,0.023-0.234-0.035-0.283-0.145c-1.121-2.488-4.748-3.781-8.582-2.881
				c-4.18,0.982-7,4.189-6.301,7.166c0.471,2.014,2.436,3.402,4.951,3.787c0.127,0.02,0.221,0.129,0.217,0.258
				c-0.004,0.127-0.102,0.232-0.23,0.246c-1.068,0.102-2.18,0.105-3.316-0.004c-6.49-0.617-11.514-4.594-11.949-9.178
				c-4.713,0.547-8.885,3.158-10.379,6.773c-0.045,0.109-0.158,0.172-0.275,0.154c-0.115-0.018-0.203-0.113-0.213-0.23
				c-0.377-4.75,1.258-7.838,4.971-10.854c-5.385,2.059-11.446,2.164-17.257-0.537c-0.105-0.051-0.164-0.166-0.143-0.281
				c0.023-0.115,0.123-0.199,0.24-0.203c4.879-0.189,8.417-1.756,11.733-5.072c-18.257,5.135-33.089-6.201-27.956-23.051
				c0.035-0.117,0.146-0.191,0.267-0.18c0.121,0.012,0.217,0.107,0.227,0.229c0.918,9.715,7.703,16.117,17.861,17.076
				c-5.387-2.059-11-6.975-11.557-15.533c-0.008-0.123,0.072-0.232,0.191-0.264c0.119-0.029,0.242,0.031,0.293,0.143
				c2.799,6.154,8.297,9.264,14.16,9.812c-6.334-2.582-10.396-8.604-11.57-16.422c-0.019-0.123,0.055-0.24,0.174-0.279
				c0.117-0.037,0.246,0.016,0.303,0.127c3.865,7.582,12.156,12.793,22.448,8.81c10.617-4.109,15.273-16.385,16.303-25.039
				c0.016-0.123,0.115-0.217,0.238-0.225c0.123-0.006,0.232,0.076,0.262,0.195c3.719,15.689-3.584,31.949-16.637,38.84
				c7.096-2.002,13.439-6.26,17.027-13.354c8.293-1.018,14.004-3.863,16.857-9.24c0.057-0.105,0.18-0.158,0.295-0.125
				c0.115,0.035,0.191,0.146,0.182,0.266c-0.182,2.109-0.941,6.33-4.074,8.271c6.965-0.012,12.506,0.893,17.799,3.014
				C128.846-166.686,128.912-166.569,128.889-166.45z M99.402-219.919c0.1,0.064,0.229,0.055,0.317-0.027
				c0.086-0.08,0.104-0.209,0.045-0.312c-1.619-2.797-0.141-6.812,3.051-6.812c5.721,0,8.471,10.77,7.596,20.592
				c-2.162-5.754-4.033-8.055-7.348-10.795c-0.094-0.076-0.229-0.078-0.322,0c-0.094,0.076-0.121,0.209-0.062,0.316
				c4.855,9.078,5.896,16.064,5.896,24.084c-1.463-5.957-3.195-9.32-8.127-14.381c-0.086-0.088-0.223-0.102-0.324-0.031
				c-0.102,0.07-0.139,0.203-0.088,0.314c5.299,11.592,4.895,24.447,0.947,34.264c-0.039,0.098-0.014,0.209,0.062,0.281
				c0.078,0.072,0.189,0.088,0.285,0.043c5.205-2.551,8.264-4.227,12.752-10.391c-1.357-7.398-0.229-11.047,3.172-17.193
				c-3.938,9.916-1.842,23.893,8.188,29.59c0.109,0.062,0.248,0.035,0.324-0.064c0.078-0.1,0.072-0.24-0.016-0.332
				c-3.781-3.955-6.531-10.635-4.156-17.926c-1.529,10.389,7.596,19.113,17.779,19.113c9.6,0,16.15-7.508,15.609-14.939
				c-0.537-7.365-5.443-10.971-9.672-12.498c-0.111-0.041-0.236,0.002-0.299,0.102c-0.064,0.1-0.051,0.23,0.033,0.314
				c5.609,5.693,6.377,16.492-3.584,19.76c5.859-5.057,3.689-16.828-5.689-17.725c-0.117-0.01-0.227,0.061-0.264,0.172
				c-0.039,0.109,0.004,0.232,0.104,0.295c2.008,1.279,3.678,3.771,3.678,6.574c0,4.674-3.422,6.512-5.676,6.512
				c-3.422,0-6.26-3.256-6.26-8.182c0-5.842,5.26-10.684,12.02-11.434c6.627-0.736,12.783,2.154,15.75,6.459
				c0.07,0.102,0.201,0.137,0.314,0.086c0.111-0.051,0.17-0.174,0.141-0.293c-3.02-11.703-16.797-16.877-26.889-9.508
				c6.613-7.5,17.006-7.605,25.723,0.086c0.09,0.08,0.225,0.086,0.322,0.012c0.096-0.074,0.127-0.205,0.072-0.314
				c-2.666-5.406-9.252-11.818-18.605-10.885c-8.557,0.855-13.522,9.016-14.524,15.691c-0.557-8.521,1.395-14.535,8.754-20.145
				c0.098-0.074,0.127-0.207,0.072-0.316c-0.055-0.109-0.18-0.164-0.297-0.129c-6.785,1.959-12.23,5.424-15.049,12.543
				c0-6.16,2.139-12.371,7.525-16.51c0.098-0.074,0.127-0.207,0.072-0.316c-0.055-0.107-0.178-0.162-0.295-0.129
				c-3.453,0.982-6.172,2.488-8.139,5.184c-1.311-11.1-6.521-17.689-12.525-17.689c-4.125,0-7.205,3.033-7.205,7.869
				C94.592-226.11,96.08-222.138,99.402-219.919z M0.175-128.302c3.162,3.904,9.539,5.393,16.432,3.988
				c-0.51,4.303,0.334,8.791,1.611,11.486c0.053,0.107,0.174,0.166,0.291,0.137c0.117-0.029,0.197-0.137,0.193-0.258
				c-0.375-8.766,4.623-15.842,13.449-18.908c-6.906,4.756-8.926,14.193-5.639,19.064c0.068,0.1,0.195,0.139,0.307,0.094
				c0.111-0.045,0.176-0.162,0.154-0.281c-0.373-2.061,0.605-4.684,2.713-6.725c2.906-2.815,6.85-3.453,8.811-1.43
				c1.961,2.025,1.197,5.947-1.707,8.76c-1.061,1.027-2.26,1.764-3.449,2.186c-0.113,0.041-0.182,0.154-0.166,0.271
				c0.014,0.119,0.109,0.211,0.229,0.221c6.389,0.555,10.77-3.252,13.516-7.877c2.795-4.705,7.57-8.412,13.211-7.672
				c0.119,0.016,0.232-0.055,0.273-0.168c0.039-0.113-0.006-0.238-0.109-0.301c-2.797-1.684-5.871-2.383-9.863-1.053
				c5.795-4.908,14.047-7.74,21.841-5.227c0.109,0.035,0.229-0.008,0.291-0.104c0.062-0.096,0.053-0.223-0.025-0.309
				c-5.909-6.564-17.69-6.695-25.11-1.371c3.037-4.316,7.068-7.486,14.293-8.479c0.115-0.016,0.205-0.109,0.219-0.225
				c0.012-0.115-0.055-0.225-0.164-0.266c-8.291-3.076-16.6,0.045-23.445,8.217c2.992-6.379,7.906-11.486,14.768-14.014
				c0.115-0.041,0.184-0.158,0.162-0.279c-0.02-0.121-0.123-0.209-0.244-0.211c-3.943-0.082-7.486,0.857-12.266,3.57
				c3.508-5.691,2.74-15.639-2.369-22.26c-0.07-0.092-0.195-0.123-0.303-0.078c-0.105,0.047-0.168,0.16-0.148,0.275
				c1.18,7.199-1.299,15.328-5.609,19.641c2.152-7.631,0.006-14.576-5.896-19.643c-0.07-0.061-0.17-0.078-0.256-0.045
				c-0.088,0.033-0.148,0.111-0.162,0.203c-1.234,9.418-11.769,18.975-20.602,19.775c-0.125,0.012-0.223,0.111-0.23,0.236
				c-0.008,0.125,0.074,0.236,0.197,0.264c4.279,0.969,8.691,0.49,12.389-1.029c-2.66,2.932-5.94,5.109-9.555,6.244
				c-0.117,0.037-0.189,0.15-0.176,0.271c0.014,0.121,0.113,0.217,0.234,0.225c4.51,0.311,8.924-1.006,12.731-3.539
				c-4.361,6.621-10.981,11.545-19.428,13.508c-0.121,0.027-0.203,0.139-0.197,0.262c0.008,0.123,0.104,0.223,0.227,0.236
				c11.918,1.303,21.746-3.318,28.221-11.918c-1.648,4.902-6.365,9.756-12.945,12.619c-5.846,2.545-11.85,2.947-16.422,1.51
				c-0.105-0.033-0.223,0.008-0.285,0.1C0.101-128.511,0.104-128.388,0.175-128.302z M53.079-203.874
				c-4.807,10.486-4.465,18.686-0.594,29.055c0.045,0.117,0.166,0.186,0.289,0.16c0.123-0.025,0.209-0.137,0.203-0.26
				c-0.621-12.623,2.826-21.654,10.299-27.809c-8.25,9.854-4.354,29.56,8.823,29.56c9.586,0,17.516-7.977,19.455-17.525
				c0.025-0.121-0.041-0.242-0.158-0.287c-0.115-0.045-0.246,0-0.309,0.107c-2.842,4.762-7.408,7.852-12.457,7.852
				c-8.136,0-10.542-6.467-10.542-11c0-6.186,4.927-11.342,8.708-11.342c3.438,0,5.041,2.822,5.041,4.926
				c0,3.898-2.998,7.166-6.375,8.164c-0.121,0.037-0.197,0.154-0.18,0.279c0.018,0.125,0.123,0.219,0.25,0.219
				c4.105,0.025,7.576-1.854,9.629-5.568c0.27,2.875,0.271,4.686-0.641,7.725c-0.035,0.117,0.018,0.242,0.125,0.299
				c0.109,0.055,0.242,0.027,0.316-0.07c7.357-9.393,3.836-25.623-1.979-32.357c5.531,3.983,10.416,12.635,10.34,24.395
				c-0.002,0.121,0.084,0.226,0.205,0.25c0.119,0.023,0.238-0.041,0.283-0.154c4.109-10.254,1.93-29.248-9.281-39.852
				c2.885-0.398,5.867-0.348,9.125,0.691c0.115,0.037,0.24-0.014,0.299-0.119c0.059-0.106,0.035-0.238-0.059-0.316
				c-4.092-3.455-9.814-4.541-15.266-4.541c4.697,5.5,3.137,16.553-4.354,16.553c-5.35,0-7.778-8.299-3.649-12.781
				c0.078-0.086,0.088-0.213,0.025-0.31c-0.064-0.098-0.186-0.139-0.297-0.102c-4.779,1.656-9.945,5.789-9.945,11.018
				c0,5.041,4.813,9.395,11.804,9.051c-8.821,2.504-18.054-0.268-22.884-6.254c-0.074-0.092-0.205-0.121-0.311-0.066
				c-0.107,0.053-0.162,0.174-0.133,0.291c2.791,10.715,11.967,15.199,23.44,13.705c-9.282,3.758-23.251,0.482-29.425-7.309
				c-0.072-0.092-0.199-0.123-0.307-0.072c-0.105,0.049-0.164,0.166-0.141,0.281C43.827-210.774,47.319-205.829,53.079-203.874z"/>
		</g>
	</g>
</pattern>
<g>
	<rect x="93.163" y="75.894" fill="#FFFFFF" stroke="#000000" stroke-miterlimit="10" width="69.919" height="24.39"/>
	<text transform="matrix(1 0 0 1 111.5502 92.1545)" font-family="'MyriadPro-Regular'" font-size="12">Kernel</text>
</g>
<g>
	<rect x="62.268" y="20.61" fill="#FFFFFF" stroke="#000000" stroke-miterlimit="10" width="69.919" height="24.39"/>
	<text transform="matrix(1 0 0 1 66.6585 36.4634)" font-family="'MyriadPro-Regular'" font-size="12">Basic Object</text>
</g>
<pattern  id="SVGID_1_" xlink:href="#Jive" patternTransform="matrix(1 0 0 1 -4.8779 -54.4715)">
</pattern>
<rect x="62.268" y="66.951" fill="url(#SVGID_1_)" stroke="#000000" stroke-miterlimit="10" width="69.919" height="26.423"/>
<g>
	<rect x="93.163" y="75.894" fill="#FFFFFF" stroke="#000000" stroke-miterlimit="10" width="69.919" height="24.39"/>
	<text transform="matrix(1 0 0 1 111.5502 92.1545)" font-family="'MyriadPro-Regular'" font-size="12">Kernel</text>
</g>
<g>
	<rect x="62.268" y="112.285" fill="#FFFFFF" stroke="#000000" stroke-miterlimit="10" width="69.919" height="24.39"/>
	<text transform="matrix(1 0 0 1 79.942 128.5447)" font-family="'MyriadPro-Regular'" font-size="12">Object</text>
</g>
<pattern  id="SVGID_2_" xlink:href="#Jive" patternTransform="matrix(0.5 0 0 1.0083 -3938.5833 31.0493)">
</pattern>
<rect x="79.748" y="154.154" fill="url(#SVGID_2_)" stroke="#000000" stroke-miterlimit="10" width="34.959" height="26.643"/>
<g>
	<rect x="94.837" y="165.138" fill="#FFFFFF" stroke="#000000" stroke-miterlimit="10" width="33.285" height="24.39"/>
	<text transform="matrix(1.0411 0 0 1 105.867 180.7971)" font-family="'MyriadPro-Regular'" font-size="12">M</text>
</g>
<g>
	<rect x="80.586" y="203.992" fill="#FFFFFF" stroke="#000000" stroke-miterlimit="10" width="33.285" height="24.39"/>
	<text transform="matrix(1.0411 0 0 1 93.0145 219.6508)" font-family="'MyriadPro-Regular'" font-size="12">C</text>
</g>
<g>
	<rect x="80.586" y="242.154" fill="#FFFFFF" stroke="#000000" stroke-miterlimit="10" width="33.285" height="24.39"/>
	<text transform="matrix(1.0411 0 0 1 92.4774 257.8134)" font-family="'MyriadPro-Regular'" font-size="12">D</text>
</g>
<g>
	<line x1="97.228" y1="45" x2="97.228" y2="66.951"/>
	<g>
		<line fill="none" stroke="#000000" stroke-miterlimit="10" x1="97.228" y1="50.97" x2="97.228" y2="66.951"/>
		<g>
			<polygon points="93.525,53.778 97.228,52.205 100.931,53.778 97.228,45 			"/>
		</g>
	</g>
</g>
<g>
	<line x1="97.228" y1="100.285" x2="97.228" y2="112.295"/>
	<g>
		<line fill="none" stroke="#000000" stroke-miterlimit="10" x1="97.228" y1="106.254" x2="97.228" y2="112.295"/>
		<g>
			<polygon points="93.525,109.063 97.228,107.49 100.931,109.063 97.228,100.285 			"/>
		</g>
	</g>
</g>
<g>
	<line x1="97.228" y1="136.675" x2="97.228" y2="154.154"/>
	<g>
		<line fill="none" stroke="#000000" stroke-miterlimit="10" x1="97.228" y1="142.645" x2="97.228" y2="154.154"/>
		<g>
			<polygon points="93.525,145.453 97.228,143.88 100.931,145.453 97.228,136.675 			"/>
		</g>
	</g>
</g>
<g>
	<line x1="97.228" y1="189.528" x2="97.228" y2="203.992"/>
	<g>
		<line fill="none" stroke="#000000" stroke-miterlimit="10" x1="97.228" y1="195.498" x2="97.228" y2="203.992"/>
		<g>
			<polygon points="93.525,198.307 97.228,196.734 100.931,198.307 97.228,189.528 			"/>
		</g>
	</g>
</g>
<g>
	<line x1="97.228" y1="228.382" x2="97.228" y2="242.154"/>
	<g>
		<line fill="none" stroke="#000000" stroke-miterlimit="10" x1="97.228" y1="234.352" x2="97.228" y2="242.154"/>
		<g>
			<polygon points="93.525,237.16 97.228,235.587 100.931,237.16 97.228,228.382 			"/>
		</g>
	</g>
</g>
</svg>
